<svg xmlns="http://www.w3.org/2000/svg" viewBox="0 0 800 600" role="img" aria-label="A tournament bracket beside a live schedule">
  <defs>
    <linearGradient id="s-bg" x1="0" y1="0" x2="1" y2="1">
      <stop offset="0" stop-color="#4a93ff"/><stop offset="1" stop-color="#12306e"/>
    </linearGradient>
  </defs>
  <rect width="800" height="600" fill="url(#s-bg)"/>
  <circle cx="90" cy="520" r="170" fill="#ffffff" opacity=".07"/>

  <!-- schedule panel -->
  <g transform="translate(60 96)">
    <rect width="330" height="408" rx="22" fill="#0a1a3a" opacity=".82"/>
    <rect x="26" y="30" width="150" height="14" rx="7" fill="#ffffff" opacity=".5"/>
    <g fill="#ffffff">
      <g opacity=".95">
        <rect x="26" y="72" width="278" height="66" rx="12" fill="#ffffff" opacity=".1"/>
        <rect x="42" y="90" width="96" height="12" rx="6" opacity=".9"/>
        <rect x="42" y="112" width="150" height="10" rx="5" opacity=".45"/>
        <rect x="238" y="96" width="52" height="22" rx="11" fill="#2f7ff5" opacity="1"/>
      </g>
      <g opacity=".95">
        <rect x="26" y="152" width="278" height="66" rx="12" fill="#ffffff" opacity=".1"/>
        <rect x="42" y="170" width="120" height="12" rx="6" opacity=".9"/>
        <rect x="42" y="192" width="132" height="10" rx="5" opacity=".45"/>
        <rect x="238" y="176" width="52" height="22" rx="11" fill="#1f9d55"/>
      </g>
      <g opacity=".95">
        <rect x="26" y="232" width="278" height="66" rx="12" fill="#ffffff" opacity=".1"/>
        <rect x="42" y="250" width="84" height="12" rx="6" opacity=".9"/>
        <rect x="42" y="272" width="160" height="10" rx="5" opacity=".45"/>
        <rect x="238" y="256" width="52" height="22" rx="11" fill="#ffb627"/>
      </g>
      <g opacity=".95">
        <rect x="26" y="312" width="278" height="66" rx="12" fill="#ffffff" opacity=".1"/>
        <rect x="42" y="330" width="132" height="12" rx="6" opacity=".9"/>
        <rect x="42" y="352" width="104" height="10" rx="5" opacity=".45"/>
        <rect x="238" y="336" width="52" height="22" rx="11" fill="#ffffff" opacity=".3"/>
      </g>
    </g>
  </g>

  <!-- bracket -->
  <g stroke="#ffffff" fill="none" stroke-width="4" stroke-linecap="round" opacity=".9">
    <g fill="#ffffff" stroke="none">
      <rect x="440" y="126" width="104" height="30" rx="8" opacity=".95"/>
      <rect x="440" y="192" width="104" height="30" rx="8" opacity=".55"/>
      <rect x="440" y="330" width="104" height="30" rx="8" opacity=".55"/>
      <rect x="440" y="396" width="104" height="30" rx="8" opacity=".95"/>
      <rect x="592" y="159" width="104" height="30" rx="8" opacity=".95"/>
      <rect x="592" y="363" width="104" height="30" rx="8" opacity=".95"/>
    </g>
    <path d="M544 141h28v33h20M544 207h28v-33"/>
    <path d="M544 345h28v33h20M544 411h28v-33"/>
    <path d="M696 174h26v104h-26" opacity=".8"/>
    <path d="M696 378h26"/>
  </g>
  <circle cx="742" cy="278" r="20" fill="#ffb627"/>
  <path d="M735 278l5 6 12-13" stroke="#12306e" stroke-width="4" fill="none" stroke-linecap="round" stroke-linejoin="round"/>
</svg>
